<svg id="svg" version="1.1" xmlns="http://www.w3.org/2000/svg" xmlns:xlink="http://www.w3.org/1999/xlink" width="400" height="400" viewBox="0, 0, 400,400"><g id="svgg"><path id="path0" d="M142.131 89.182 C 141.830 91.432,140.691 93.538,137.767 97.258 C 133.578 102.586,132.349 107.896,134.197 112.685 C 135.045 114.882,135.138 114.875,136.942 112.500 C 139.961 108.525,141.554 104.990,142.578 100.000 L 143.224 96.852 143.512 98.653 C 144.657 105.815,140.264 114.312,132.635 119.692 C 130.880 120.930,128.528 122.715,127.407 123.660 C 123.948 126.576,124.244 126.610,124.380 123.309 C 124.589 118.241,122.925 114.317,118.776 110.093 C 116.100 107.367,115.926 107.316,115.926 109.255 C 115.926 111.212,114.885 113.860,112.805 117.197 C 108.956 123.373,108.421 128.062,110.971 133.273 L 111.957 135.288 112.655 134.403 C 115.105 131.299,117.301 124.921,117.741 119.630 L 118.003 116.481 118.469 118.087 C 120.207 124.083,118.043 131.322,112.196 139.064 C 110.553 141.238,108.237 144.499,107.049 146.308 L 104.888 149.599 104.310 147.039 C 102.872 140.670,97.989 134.968,91.577 132.170 C 89.935 131.454,87.773 130.707,87.782 130.859 C 87.784 130.896,88.034 131.744,88.337 132.744 C 89.115 135.309,89.027 137.766,87.963 143.112 C 86.199 151.980,87.225 156.762,91.943 161.649 C 94.480 164.278,94.619 164.211,95.423 159.974 C 96.462 154.502,95.796 146.593,93.850 141.296 C 93.168 139.440,95.146 142.005,96.260 144.422 C 99.526 151.508,99.254 159.577,95.372 170.741 C 78.824 218.333,103.257 273.731,150.370 295.445 C 152.713 296.524,154.685 297.574,154.753 297.778 C 154.821 297.982,155.247 298.148,155.699 298.148 C 156.151 298.148,158.262 298.735,160.390 299.452 C 192.496 310.274,227.245 304.674,254.833 284.234 C 261.798 279.074,268.882 277.122,275.497 278.540 C 279.310 279.358,278.847 279.813,274.173 279.842 C 269.409 279.872,265.904 280.625,262.067 282.441 C 259.399 283.704,259.442 283.861,262.963 285.706 C 267.346 288.004,271.132 287.764,278.041 284.750 C 281.429 283.271,282.944 282.812,284.898 282.673 C 287.837 282.462,287.759 282.615,286.092 280.345 C 282.206 275.051,277.957 272.778,271.945 272.778 C 269.653 272.778,267.778 272.742,267.778 272.699 C 267.778 272.656,268.720 271.573,269.872 270.292 C 275.138 264.435,281.484 254.843,284.838 247.667 C 287.555 241.856,294.924 238.150,302.825 238.622 C 306.350 238.832,308.370 239.600,305.447 239.618 C 301.223 239.645,294.462 241.709,290.849 244.075 L 288.919 245.339 289.923 246.010 C 291.927 247.351,295.810 248.266,298.470 248.023 C 300.971 247.794,301.408 247.609,309.444 243.381 C 311.333 242.388,313.113 241.742,314.352 241.600 C 316.794 241.321,316.799 241.348,313.793 238.446 C 306.290 231.202,294.214 231.244,289.393 238.530 C 288.071 240.527,288.032 240.397,289.100 237.560 C 290.256 234.489,292.370 226.409,293.162 222.037 C 293.494 220.204,294.114 217.370,294.540 215.741 C 295.529 211.958,295.594 205.123,294.677 201.334 C 294.000 198.533,294.079 197.986,294.965 199.340 C 297.310 202.917,298.008 211.387,296.402 216.759 C 295.486 219.825,295.649 219.844,298.475 216.992 C 306.525 208.867,302.375 194.864,290.590 190.383 C 289.723 190.054,289.705 190.081,290.032 191.223 C 290.615 193.257,290.409 195.567,289.214 200.360 C 287.416 207.576,288.072 211.537,291.839 216.224 L 293.035 217.714 292.031 221.727 C 289.460 231.999,283.900 244.632,278.203 253.148 C 274.783 258.259,272.767 260.764,273.281 259.259 C 275.893 251.628,270.869 242.367,262.138 238.722 L 260.758 238.145 261.120 239.097 C 261.763 240.788,261.497 244.158,260.366 248.681 C 258.879 254.625,258.962 257.059,260.785 260.938 C 261.747 262.985,264.172 265.768,264.706 265.437 C 266.602 264.266,267.031 252.369,265.363 247.221 C 264.825 245.560,266.634 248.202,267.467 250.293 C 268.695 253.375,268.714 261.198,267.502 265.050 C 266.141 269.380,255.632 278.537,245.000 284.658 L 243.148 285.724 243.808 284.806 C 248.907 277.718,248.404 269.207,242.504 262.752 L 240.626 260.696 242.072 259.543 C 249.343 253.747,253.379 245.964,255.708 233.246 C 258.613 217.387,257.633 199.502,253.831 198.960 C 251.723 198.660,250.861 201.293,249.043 213.581 C 245.698 236.192,241.622 245.638,233.426 249.772 C 231.173 250.909,230.911 250.640,232.800 249.133 C 239.242 243.993,245.080 230.636,242.106 227.842 C 240.135 225.991,238.662 226.785,235.006 231.667 C 230.623 237.520,226.762 240.846,221.465 243.333 C 219.206 244.394,216.749 246.306,207.963 253.839 C 202.056 258.904,196.688 263.307,196.036 263.622 C 194.123 264.546,193.984 265.744,193.809 282.870 L 193.652 298.148 191.734 298.146 C 190.678 298.144,188.713 298.039,187.366 297.912 L 184.917 297.680 184.697 284.118 C 184.481 270.786,184.180 267.206,182.962 263.515 C 182.612 262.456,180.669 260.586,173.319 254.240 C 168.257 249.868,164.011 246.123,163.884 245.917 C 163.756 245.712,163.515 245.629,163.346 245.733 C 162.960 245.971,158.831 244.427,155.817 242.916 C 150.798 240.401,147.291 237.247,143.020 231.408 C 139.599 226.731,138.072 225.968,136.094 227.946 C 133.232 230.809,138.789 243.434,145.480 249.268 L 147.222 250.787 145.741 250.191 C 137.016 246.681,132.626 237.103,129.255 214.225 C 127.408 201.682,126.609 198.889,124.871 198.889 C 120.843 198.889,119.509 215.691,122.253 231.852 C 125.735 252.352,133.075 260.879,154.307 269.085 C 165.924 273.575,167.401 276.820,162.391 286.852 C 159.589 292.462,160.353 292.385,151.450 287.955 C 97.873 261.297,80.144 194.098,113.509 144.142 C 123.691 128.898,140.873 114.394,156.636 107.740 C 157.739 107.274,158.463 106.833,158.245 106.761 C 157.811 106.616,152.766 108.516,148.762 110.332 C 145.826 111.663,145.604 111.710,146.398 110.833 C 150.659 106.124,149.468 95.709,143.955 89.466 L 142.339 87.637 142.131 89.182 M189.257 113.357 C 135.901 116.529,99.229 166.494,111.716 219.005 C 112.811 223.610,113.250 224.010,112.537 219.754 C 110.625 208.347,112.676 190.272,117.193 178.719 C 140.675 118.663,220.329 106.978,259.626 157.824 C 273.080 175.233,279.431 199.590,275.929 220.351 C 275.252 224.364,275.691 223.847,276.773 219.357 C 280.939 202.067,279.933 184.556,273.832 168.188 C 262.502 137.797,232.462 115.150,201.296 113.507 C 199.259 113.399,196.759 113.259,195.741 113.196 C 194.722 113.133,191.805 113.205,189.257 113.357 M241.137 151.389 C 238.923 152.518,238.576 153.383,237.331 160.851 L 236.178 167.778 220.897 182.129 L 205.617 196.479 192.531 196.355 C 168.540 196.127,141.545 197.733,136.019 199.717 C 132.736 200.895,136.398 202.177,145.741 203.120 C 154.632 204.018,159.630 204.247,159.630 203.756 C 159.630 203.456,161.406 203.333,165.741 203.333 C 171.605 203.333,171.852 203.363,171.852 204.074 C 171.852 204.803,172.099 204.815,187.537 204.815 C 204.760 204.815,208.889 204.625,208.889 203.835 C 208.889 203.247,220.956 203.081,221.173 203.666 C 221.590 204.789,242.222 201.893,242.222 200.711 C 242.222 199.812,237.090 198.668,229.887 197.962 C 226.744 197.653,226.032 198.763,236.717 187.320 L 245.842 177.549 252.088 176.500 C 260.729 175.050,261.706 174.573,262.627 171.362 C 263.310 168.980,262.657 168.023,254.826 159.942 C 245.858 150.687,244.356 149.748,241.137 151.389 M239.429 262.685 C 239.056 264.414,237.971 266.441,235.645 269.753 C 231.551 275.587,230.697 284.017,233.929 286.700 C 235.499 288.003,240.741 276.102,240.741 271.237 C 240.741 269.373,241.282 269.096,241.620 270.787 C 242.584 275.605,241.123 280.992,237.287 286.766 L 235.376 289.642 230.743 291.450 C 228.196 292.444,225.159 293.528,223.995 293.858 C 222.831 294.187,221.649 294.545,221.368 294.653 C 220.336 295.049,215.687 287.380,214.097 282.659 C 211.717 275.595,213.532 273.069,223.855 269.079 C 229.045 267.073,235.042 264.273,237.593 262.664 C 239.861 261.233,239.742 261.232,239.429 262.685 M161.944 337.677 C 162.708 337.757,163.958 337.757,164.722 337.677 C 165.486 337.597,164.861 337.532,163.333 337.532 C 161.806 337.532,161.181 337.597,161.944 337.677 M253.603 337.675 C 254.260 337.757,255.427 337.758,256.195 337.678 C 256.964 337.598,256.426 337.531,255.000 337.529 C 253.574 337.527,252.945 337.593,253.603 337.675 " stroke="none" fill="#49b079" fill-rule="evenodd"></path><path id="path1" d="M0.000 200.000 L 0.000 400.000 200.000 400.000 L 400.000 400.000 400.000 200.000 L 400.000 0.000 200.000 0.000 L 0.000 0.000 0.000 200.000 M146.117 92.222 C 150.041 98.230,150.244 104.130,146.754 110.803 C 146.683 110.939,148.509 110.253,150.813 109.277 C 154.951 107.524,162.879 104.804,163.789 104.826 C 164.048 104.832,162.514 105.526,160.381 106.368 C 128.112 119.110,104.100 148.593,98.168 182.754 C 90.443 227.239,114.321 271.884,155.370 289.707 C 160.084 291.754,159.455 292.005,161.997 287.063 C 167.380 276.602,166.034 273.922,152.778 268.704 C 138.145 262.944,130.167 256.336,126.044 246.559 C 120.044 232.334,118.621 202.922,123.750 199.157 C 126.447 197.177,127.499 200.042,129.639 215.185 C 132.435 234.980,136.285 244.235,143.684 248.951 C 146.022 250.441,146.150 250.258,144.182 248.241 C 137.367 241.256,133.161 230.509,136.094 227.576 C 138.006 225.664,139.877 226.569,142.884 230.860 C 147.858 237.958,152.689 241.795,160.225 244.631 C 162.640 245.540,163.797 245.658,162.266 244.838 C 161.847 244.614,161.083 243.711,160.567 242.831 L 159.630 241.231 159.630 222.838 C 159.630 205.569,159.590 204.444,158.981 204.439 C 152.655 204.391,137.255 202.424,135.278 201.412 C 129.789 198.603,147.855 196.718,183.284 196.403 L 205.642 196.204 220.758 181.976 C 231.617 171.755,235.931 167.466,236.078 166.745 C 236.190 166.193,236.709 163.178,237.230 160.045 C 238.551 152.109,239.507 150.741,243.728 150.741 L 245.702 150.741 253.805 158.796 C 263.448 168.383,264.075 169.380,262.443 172.518 C 261.137 175.027,260.729 175.196,252.452 176.648 C 249.032 177.248,245.970 177.956,245.646 178.221 C 244.203 179.406,227.824 197.182,227.965 197.411 C 228.052 197.552,229.413 197.776,230.989 197.909 C 235.195 198.265,240.330 199.219,241.616 199.885 L 242.741 200.466 241.922 201.129 C 240.608 202.192,233.953 203.299,225.150 203.917 L 221.597 204.167 221.354 212.514 C 221.220 217.104,221.111 225.425,221.111 231.004 C 221.111 239.508,221.017 241.330,220.528 242.275 C 217.977 247.210,229.367 238.809,234.473 231.991 C 238.445 226.689,239.907 225.798,241.973 227.423 C 245.247 229.998,241.474 240.311,234.561 247.685 C 233.368 248.958,232.464 250.000,232.552 250.000 C 233.200 250.000,236.635 247.325,238.307 245.520 C 243.497 239.914,246.117 232.037,248.735 214.166 C 250.447 202.481,250.818 200.946,252.311 199.352 C 256.957 194.393,259.335 213.483,256.294 231.321 C 254.097 244.210,251.294 250.531,244.922 256.968 L 241.141 260.788 242.767 262.785 C 248.176 269.425,248.966 276.537,245.022 283.085 L 243.722 285.245 245.472 284.228 C 251.030 280.997,257.239 276.315,263.203 270.856 L 266.592 267.756 267.411 264.720 C 268.998 258.838,268.785 253.694,266.768 249.159 C 265.570 246.464,265.426 246.612,266.110 249.840 C 267.077 254.403,266.671 261.170,265.204 264.969 L 264.787 266.049 263.299 264.598 C 259.311 260.712,258.426 255.811,260.332 248.167 C 261.554 243.265,261.700 241.684,261.117 239.652 C 260.633 237.961,260.742 237.923,263.032 238.982 C 271.146 242.735,276.085 252.216,273.500 259.074 C 273.113 260.102,275.385 257.133,278.035 253.148 C 284.180 243.910,288.849 233.386,291.664 222.427 L 292.896 217.632 291.697 216.232 C 288.292 212.253,287.264 206.718,288.868 201.002 C 290.087 196.657,290.388 194.266,289.983 192.134 C 289.520 189.692,289.553 189.678,292.437 191.098 C 303.449 196.519,306.334 210.097,298.064 217.581 C 295.752 219.673,294.899 220.138,295.492 218.981 C 297.988 214.117,297.600 203.421,294.783 199.444 C 294.320 198.790,294.101 198.638,294.251 199.074 C 295.684 203.226,295.873 211.567,294.633 215.926 C 294.315 217.046,293.720 219.796,293.311 222.037 C 292.504 226.458,290.847 232.973,289.649 236.436 L 288.896 238.613 290.654 236.969 C 297.155 230.888,307.235 231.605,314.259 238.649 L 316.852 241.248 314.444 241.736 C 311.379 242.357,310.333 242.778,307.573 244.501 C 300.734 248.769,295.116 249.314,290.038 246.200 L 288.780 245.428 289.668 244.698 C 292.538 242.337,300.418 239.650,304.596 239.606 C 307.224 239.579,306.529 239.103,303.301 238.718 C 299.247 238.235,293.134 240.001,288.444 243.011 C 286.906 243.998,286.468 244.593,284.997 247.698 C 281.525 255.028,275.487 264.145,269.961 270.404 L 267.805 272.846 269.805 272.501 C 274.336 271.721,279.390 273.481,283.282 277.195 C 285.216 279.041,287.781 282.159,287.777 282.659 C 287.776 282.724,286.651 282.792,285.277 282.810 C 283.321 282.835,282.174 283.104,280.000 284.047 C 278.472 284.710,276.222 285.686,275.000 286.217 C 270.491 288.174,264.646 287.492,260.801 284.559 L 259.524 283.585 261.225 282.721 C 264.925 280.840,268.498 279.942,273.333 279.674 C 277.754 279.430,277.896 279.398,276.481 278.956 C 270.422 277.061,262.399 278.830,256.198 283.429 C 227.543 304.675,192.661 310.592,160.579 299.648 C 158.758 299.027,156.615 298.519,155.817 298.519 C 154.773 298.519,154.417 298.382,154.551 298.034 C 154.675 297.711,153.666 297.078,151.535 296.142 C 103.248 274.926,79.085 220.202,95.604 169.468 C 99.257 158.250,99.345 150.847,95.908 144.038 C 94.870 141.982,93.612 140.507,94.228 142.069 C 96.108 146.833,96.660 155.481,95.426 160.833 C 94.634 164.271,94.380 164.344,91.892 161.857 C 87.359 157.323,86.029 151.280,87.807 143.282 C 88.759 138.998,88.913 134.610,88.185 132.475 C 87.528 130.544,87.778 130.457,90.627 131.627 C 97.833 134.586,103.206 140.595,104.493 147.132 L 104.912 149.264 107.751 145.095 C 109.313 142.802,111.542 139.676,112.705 138.148 C 117.769 131.495,120.001 123.929,118.443 118.704 C 118.004 117.232,117.999 117.246,117.720 120.629 C 117.400 124.503,116.127 128.702,114.248 132.073 C 112.243 135.671,112.059 135.705,110.649 132.729 C 108.395 127.969,108.968 122.945,112.372 117.624 C 114.533 114.245,115.263 112.548,115.727 109.826 L 116.170 107.222 118.764 109.815 C 122.902 113.950,125.248 119.679,124.649 124.189 L 124.413 125.974 127.299 123.602 C 128.886 122.297,131.519 120.299,133.148 119.161 C 139.851 114.481,144.337 105.832,143.443 99.311 L 143.208 97.601 142.695 100.143 C 141.680 105.162,138.707 111.238,136.004 113.819 L 134.913 114.859 134.254 113.263 C 132.388 108.740,133.273 103.125,136.543 98.743 C 140.328 93.669,141.438 91.810,141.892 89.779 L 142.345 87.757 143.445 88.786 C 144.049 89.352,145.252 90.898,146.117 92.222 M202.222 113.354 C 250.440 117.757,285.416 162.131,278.688 210.367 C 278.116 214.467,276.046 223.274,275.205 225.185 L 274.798 226.111 274.977 225.178 C 280.500 196.438,271.840 168.729,251.073 148.693 C 223.985 122.559,181.475 118.396,150.000 138.795 C 121.103 157.523,107.160 190.341,113.501 224.704 C 114.021 227.522,111.677 219.626,110.921 216.015 C 101.923 173.010,126.205 130.951,167.963 117.213 C 174.698 114.997,179.254 114.109,188.519 113.208 C 191.487 112.919,198.245 112.991,202.222 113.354 M171.852 220.749 L 171.852 236.498 180.824 244.254 C 185.758 248.520,190.054 252.011,190.371 252.011 C 190.688 252.011,194.984 248.530,199.918 244.277 L 208.889 236.543 208.889 220.752 L 208.889 204.960 190.370 204.980 L 171.852 205.000 171.852 220.749 M236.852 263.396 C 235.630 264.174,232.213 265.820,229.259 267.053 C 226.306 268.286,222.639 269.819,221.111 270.460 C 217.544 271.955,215.469 273.239,214.384 274.623 C 212.007 277.657,214.830 286.724,220.315 293.672 L 221.022 294.567 223.381 293.909 C 229.863 292.100,235.163 289.648,236.508 287.836 C 240.065 283.042,242.146 276.703,241.635 272.222 L 241.360 269.815 240.714 273.186 C 239.754 278.193,237.479 283.418,234.950 286.423 L 234.064 287.476 233.051 285.312 C 230.822 280.555,231.744 275.033,235.691 269.490 C 239.795 263.728,240.273 261.218,236.852 263.396 M183.105 263.167 C 184.324 266.337,184.537 268.976,184.707 283.033 L 184.881 297.363 185.866 297.554 C 186.408 297.659,188.310 297.855,190.093 297.990 L 193.333 298.236 193.341 284.951 C 193.348 272.799,193.487 269.913,194.264 265.826 C 194.529 264.433,194.528 264.431,193.537 264.808 C 191.108 265.731,186.350 264.944,183.914 263.216 C 182.869 262.475,182.838 262.473,183.105 263.167 M169.699 330.932 C 172.920 338.855,175.556 345.470,175.556 345.632 C 175.556 345.793,174.125 345.926,172.378 345.926 L 169.200 345.926 168.618 344.444 L 168.036 342.963 163.459 342.963 L 158.883 342.963 158.290 344.444 L 157.697 345.926 154.399 345.926 L 151.101 345.926 151.591 344.722 C 151.860 344.060,154.563 337.391,157.598 329.902 C 160.634 322.413,163.280 316.340,163.479 316.407 C 163.678 316.473,166.477 323.010,169.699 330.932 M261.323 330.800 C 264.568 338.777,267.278 345.444,267.346 345.615 C 267.414 345.786,265.981 345.926,264.161 345.926 L 260.853 345.926 260.271 344.444 L 259.689 342.963 255.045 342.963 L 250.400 342.963 249.956 344.444 L 249.512 345.926 246.194 345.926 C 243.212 345.926,242.895 345.860,243.059 345.278 C 243.198 344.781,250.967 325.552,254.282 317.500 C 255.091 315.532,255.187 315.714,261.323 330.800 M134.365 323.056 C 135.574 326.162,136.773 329.370,137.030 330.185 C 137.760 332.502,138.009 332.459,138.870 329.871 C 139.313 328.542,140.565 325.235,141.653 322.523 L 143.631 317.593 147.000 317.486 C 148.854 317.428,150.370 317.435,150.370 317.502 C 150.370 318.753,138.503 346.504,137.932 346.588 C 137.313 346.680,125.556 319.215,125.556 317.678 C 125.556 317.529,127.043 317.407,128.861 317.407 L 132.167 317.407 134.365 323.056 M185.185 331.667 L 185.185 345.926 182.407 345.926 L 179.630 345.926 179.630 331.667 L 179.630 317.407 182.407 317.407 L 185.185 317.407 185.185 331.667 M203.408 317.823 C 216.219 320.539,218.482 338.743,206.729 344.533 C 204.292 345.734,204.245 345.741,197.880 345.864 L 191.481 345.987 191.481 331.697 L 191.481 317.407 196.463 317.407 C 199.203 317.407,202.328 317.595,203.408 317.823 M226.439 322.269 L 229.355 327.131 232.177 322.279 L 235.000 317.427 238.654 317.417 L 242.307 317.407 241.692 318.347 C 241.354 318.863,239.084 322.419,236.649 326.248 L 232.222 333.210 232.222 339.568 L 232.222 345.926 229.259 345.926 L 226.296 345.926 226.296 339.464 L 226.296 333.001 221.481 325.412 C 218.833 321.239,216.667 317.730,216.667 317.616 C 216.667 317.501,218.209 317.407,220.095 317.407 L 223.523 317.407 226.439 322.269 M197.407 331.706 L 197.407 340.078 200.340 339.945 C 211.628 339.433,210.670 323.347,199.352 323.335 L 197.407 323.333 197.407 331.706 M163.179 331.327 C 160.703 337.577,160.696 337.480,163.620 337.334 L 165.844 337.222 164.652 333.919 C 163.737 331.382,163.395 330.781,163.179 331.327 M253.818 334.092 L 252.637 337.407 255.062 337.407 C 256.846 337.407,257.442 337.285,257.316 336.944 C 257.222 336.690,256.767 335.315,256.305 333.889 C 255.156 330.346,255.152 330.346,253.818 334.092 " stroke="none" fill="#fbfbeb" fill-rule="evenodd"></path><path id="path2" d="M159.630 221.844 C 159.630 244.056,159.168 241.874,164.946 246.960 C 191.047 269.933,189.504 269.652,207.037 254.623 C 219.194 244.203,219.560 243.858,220.406 242.037 C 221.048 240.656,221.095 239.296,221.103 221.944 L 221.111 203.333 215.000 203.333 L 208.889 203.333 208.875 220.093 L 208.861 236.852 199.782 244.630 C 194.789 248.907,190.557 252.407,190.377 252.407 C 190.197 252.407,185.966 248.907,180.974 244.630 L 171.897 236.852 171.875 220.093 L 171.852 203.333 165.741 203.333 L 159.630 203.333 159.630 221.844 M157.310 331.047 C 154.104 338.959,151.481 345.543,151.481 345.679 C 151.481 345.815,152.872 345.926,154.571 345.926 L 157.661 345.926 158.104 344.444 L 158.548 342.963 163.378 342.963 L 168.208 342.963 168.790 344.444 L 169.372 345.926 172.461 345.926 L 175.550 345.926 174.927 344.352 C 170.726 333.728,163.711 316.854,163.460 316.771 C 163.283 316.712,160.515 323.136,157.310 331.047 M254.474 317.500 C 254.297 317.958,251.950 323.750,249.258 330.370 C 246.566 336.991,244.051 343.199,243.669 344.167 L 242.974 345.926 246.060 345.926 L 249.147 345.926 249.729 344.444 L 250.311 342.963 255.099 342.963 L 259.888 342.963 260.470 344.444 L 261.052 345.926 264.044 345.926 C 265.690 345.926,267.037 345.805,267.037 345.657 C 267.037 345.015,255.355 316.667,255.090 316.667 C 254.929 316.667,254.651 317.042,254.474 317.500 M125.920 318.056 C 125.891 319.500,137.316 346.297,137.925 346.211 C 138.486 346.131,150.000 319.126,150.000 317.889 C 150.000 317.812,148.555 317.797,146.789 317.856 L 143.578 317.963 140.788 325.277 C 139.254 329.300,137.893 332.467,137.764 332.314 C 137.635 332.162,137.232 331.204,136.868 330.185 C 136.504 329.167,135.284 325.958,134.158 323.056 L 132.110 317.778 129.018 317.778 C 127.317 317.778,125.923 317.903,125.920 318.056 M179.630 331.852 L 179.630 345.926 182.407 345.926 L 185.185 345.926 185.185 331.852 L 185.185 317.778 182.407 317.778 L 179.630 317.778 179.630 331.852 M191.852 331.865 L 191.852 346.014 197.685 345.842 C 209.104 345.504,213.889 341.319,213.889 331.667 C 213.889 322.084,209.287 318.063,198.065 317.839 L 191.852 317.715 191.852 331.865 M217.037 317.955 C 217.037 318.052,219.204 321.531,221.852 325.685 L 226.667 333.238 226.667 339.582 L 226.667 345.926 229.444 345.926 L 232.222 345.926 232.222 339.389 L 232.222 332.852 234.024 330.037 C 235.015 328.489,237.179 325.097,238.833 322.500 L 241.841 317.778 238.420 317.783 L 235.000 317.789 232.294 322.413 C 230.806 324.956,229.463 327.037,229.310 327.037 C 229.157 327.037,227.814 324.954,226.326 322.407 L 223.619 317.778 220.328 317.778 C 218.518 317.778,217.037 317.857,217.037 317.955 M203.959 324.054 C 212.132 327.764,208.608 340.370,199.398 340.370 L 197.407 340.370 197.407 331.852 L 197.407 323.333 199.907 323.341 C 201.559 323.347,202.934 323.589,203.959 324.054 M164.819 333.901 C 165.428 335.702,165.926 337.311,165.926 337.477 C 165.926 337.642,164.759 337.778,163.333 337.778 C 161.907 337.778,160.741 337.704,160.741 337.615 C 160.741 337.467,162.196 333.342,163.021 331.152 C 163.462 329.982,163.529 330.086,164.819 333.901 M256.595 334.126 C 257.927 337.866,257.967 337.778,254.938 337.778 C 252.177 337.778,252.226 337.954,253.781 333.659 C 255.143 329.894,255.083 329.884,256.595 334.126 " stroke="none" fill="#044cac" fill-rule="evenodd"></path><path id="path3" d="M252.407 150.000 C 253.203 150.815,253.937 151.481,254.039 151.481 C 254.141 151.481,253.573 150.815,252.778 150.000 C 251.982 149.185,251.248 148.519,251.146 148.519 C 251.044 148.519,251.612 149.185,252.407 150.000 M134.795 151.019 L 133.519 152.407 134.907 151.131 C 135.671 150.429,136.296 149.804,136.296 149.742 C 136.296 149.459,135.983 149.726,134.795 151.019 M245.165 151.150 C 245.664 151.349,246.255 151.630,246.479 151.774 C 246.703 151.919,246.569 151.745,246.180 151.389 C 245.791 151.032,245.200 150.751,244.866 150.764 C 244.483 150.779,244.592 150.921,245.165 151.150 M96.044 153.704 C 96.044 155.028,96.112 155.569,96.194 154.907 C 96.276 154.245,96.276 153.162,96.194 152.500 C 96.112 151.838,96.044 152.380,96.044 153.704 M259.630 165.000 C 260.942 166.324,262.099 167.407,262.201 167.407 C 262.303 167.407,261.312 166.324,260.000 165.000 C 258.688 163.676,257.531 162.593,257.429 162.593 C 257.327 162.593,258.317 163.676,259.630 165.000 M235.955 167.025 C 235.939 167.325,235.053 168.491,233.986 169.618 L 232.046 171.667 234.216 169.580 C 235.500 168.346,236.305 167.287,236.186 166.988 C 236.025 166.582,235.979 166.590,235.955 167.025 M228.137 175.093 L 225.741 177.593 228.241 175.196 C 229.616 173.878,230.741 172.753,230.741 172.696 C 230.741 172.423,230.364 172.770,228.137 175.093 M243.693 179.907 L 241.296 182.407 243.704 180.136 C 245.028 178.886,246.361 177.774,246.667 177.665 C 247.153 177.491,247.152 177.462,246.656 177.437 C 246.345 177.421,245.011 178.532,243.693 179.907 M222.212 180.648 L 219.815 183.148 222.315 180.751 C 224.637 178.525,224.984 178.148,224.712 178.148 C 224.655 178.148,223.530 179.273,222.212 180.648 M237.951 186.019 L 235.741 188.333 238.056 186.123 C 239.329 184.907,240.370 183.865,240.370 183.808 C 240.370 183.534,240.005 183.868,237.951 186.019 M215.915 186.574 L 213.519 189.074 216.019 186.677 C 217.394 185.359,218.519 184.234,218.519 184.177 C 218.519 183.905,218.141 184.252,215.915 186.574 M232.764 191.574 L 230.926 193.519 232.870 191.681 C 234.677 189.973,234.985 189.630,234.708 189.630 C 234.650 189.630,233.775 190.505,232.764 191.574 M209.619 192.500 L 207.222 195.000 209.722 192.603 C 211.097 191.285,212.222 190.160,212.222 190.103 C 212.222 189.831,211.845 190.178,209.619 192.500 M109.020 197.963 C 109.019 199.796,109.082 200.593,109.160 199.733 C 109.237 198.874,109.238 197.374,109.162 196.400 C 109.085 195.426,109.021 196.130,109.020 197.963 M228.591 196.036 C 227.332 197.335,227.141 197.778,227.840 197.778 C 228.077 197.778,228.158 197.664,228.018 197.524 C 227.879 197.385,228.300 196.718,228.955 196.043 C 229.610 195.367,230.062 194.815,229.960 194.815 C 229.858 194.815,229.242 195.364,228.591 196.036 M203.704 196.296 L 201.667 196.546 203.589 196.606 C 204.647 196.640,205.615 196.500,205.741 196.296 C 205.867 196.093,205.918 195.953,205.855 195.986 C 205.792 196.019,204.824 196.159,203.704 196.296 M169.537 196.567 C 170.403 196.645,171.819 196.645,172.685 196.567 C 173.551 196.490,172.843 196.426,171.111 196.426 C 169.380 196.426,168.671 196.490,169.537 196.567 M160.288 196.938 C 161.159 197.017,162.492 197.015,163.251 196.936 C 164.009 196.856,163.296 196.792,161.667 196.794 C 160.037 196.795,159.416 196.860,160.288 196.938 M153.431 197.303 C 153.994 197.388,154.827 197.386,155.283 197.298 C 155.738 197.210,155.278 197.140,154.259 197.143 C 153.241 197.146,152.868 197.218,153.431 197.303 M148.616 197.673 C 149.179 197.758,150.013 197.756,150.468 197.668 C 150.924 197.580,150.463 197.511,149.444 197.513 C 148.426 197.516,148.053 197.588,148.616 197.673 M230.093 198.033 C 230.449 198.126,231.032 198.126,231.389 198.033 C 231.745 197.940,231.454 197.864,230.741 197.864 C 230.028 197.864,229.736 197.940,230.093 198.033 M147.690 203.595 C 148.150 203.684,148.817 203.681,149.171 203.588 C 149.525 203.495,149.148 203.423,148.333 203.427 C 147.519 203.431,147.229 203.507,147.690 203.595 M227.685 203.595 C 228.144 203.683,228.894 203.683,229.352 203.595 C 229.810 203.506,229.435 203.434,228.519 203.434 C 227.602 203.434,227.227 203.506,227.685 203.595 M152.320 203.969 C 152.883 204.055,153.716 204.052,154.172 203.964 C 154.627 203.877,154.167 203.807,153.148 203.810 C 152.130 203.812,151.757 203.884,152.320 203.969 M223.061 203.969 C 223.624 204.055,224.457 204.052,224.912 203.964 C 225.368 203.877,224.907 203.807,223.889 203.810 C 222.870 203.812,222.498 203.884,223.061 203.969 M157.315 204.335 C 157.773 204.424,158.523 204.424,158.981 204.335 C 159.440 204.247,159.065 204.175,158.148 204.175 C 157.231 204.175,156.856 204.247,157.315 204.335 M221.260 209.630 C 221.260 212.787,221.317 214.079,221.386 212.500 C 221.456 210.921,221.456 208.338,221.386 206.759 C 221.317 205.181,221.260 206.472,221.260 209.630 M206.019 204.710 C 206.579 204.795,207.495 204.795,208.056 204.710 C 208.616 204.625,208.157 204.555,207.037 204.555 C 205.917 204.555,205.458 204.625,206.019 204.710 M183.241 205.092 C 186.144 205.154,190.894 205.154,193.796 205.092 C 196.699 205.029,194.324 204.978,188.519 204.978 C 182.713 204.978,180.338 205.029,183.241 205.092 M257.123 207.407 C 257.123 208.120,257.199 208.412,257.292 208.056 C 257.386 207.699,257.386 207.116,257.292 206.759 C 257.199 206.403,257.123 206.694,257.123 207.407 M120.827 208.148 C 120.827 208.861,120.903 209.153,120.996 208.796 C 121.089 208.440,121.089 207.856,120.996 207.500 C 120.903 207.144,120.827 207.435,120.827 208.148 M257.551 215.000 C 257.552 217.648,257.611 218.683,257.682 217.299 C 257.754 215.916,257.753 213.749,257.681 212.485 C 257.609 211.220,257.551 212.352,257.551 215.000 M120.471 213.333 C 120.471 214.250,120.543 214.625,120.632 214.167 C 120.720 213.708,120.720 212.958,120.632 212.500 C 120.543 212.042,120.471 212.417,120.471 213.333 M120.842 221.481 C 120.842 222.398,120.914 222.773,121.002 222.315 C 121.090 221.856,121.090 221.106,121.002 220.648 C 120.914 220.190,120.842 220.565,120.842 221.481 M257.130 223.148 C 257.135 223.963,257.210 224.253,257.299 223.792 C 257.388 223.331,257.384 222.665,257.292 222.310 C 257.199 221.956,257.126 222.333,257.130 223.148 M121.197 225.926 C 121.197 226.639,121.273 226.931,121.366 226.574 C 121.460 226.218,121.460 225.634,121.366 225.278 C 121.273 224.921,121.197 225.213,121.197 225.926 M136.245 227.429 L 135.370 228.192 136.388 227.572 C 136.977 227.214,137.867 227.020,138.498 227.113 C 139.099 227.201,139.506 227.137,139.403 226.970 C 139.045 226.390,137.114 226.671,136.245 227.429 M243.056 230.556 C 243.060 231.370,243.136 231.660,243.225 231.199 C 243.314 230.739,243.310 230.072,243.217 229.718 C 243.125 229.364,243.052 229.741,243.056 230.556 M147.407 236.852 C 148.514 237.972,149.502 238.889,149.604 238.889 C 149.706 238.889,148.884 237.972,147.778 236.852 C 146.671 235.731,145.683 234.815,145.581 234.815 C 145.479 234.815,146.301 235.731,147.407 236.852 M230.358 236.944 L 228.333 239.074 230.463 237.050 C 232.441 235.169,232.762 234.815,232.487 234.815 C 232.429 234.815,231.471 235.773,230.358 236.944 M219.256 243.893 C 218.756 244.495,219.148 244.621,219.947 244.115 C 220.252 243.921,220.305 243.707,220.082 243.569 C 219.879 243.444,219.508 243.590,219.256 243.893 M140.185 246.296 C 141.188 247.315,142.093 248.148,142.194 248.148 C 142.296 248.148,141.559 247.315,140.556 246.296 C 139.552 245.278,138.648 244.444,138.546 244.444 C 138.445 244.444,139.182 245.278,140.185 246.296 M237.579 246.389 L 235.741 248.333 237.685 246.495 C 238.755 245.485,239.630 244.610,239.630 244.551 C 239.630 244.275,239.287 244.582,237.579 246.389 M233.744 248.292 C 232.823 249.242,232.648 249.616,233.023 249.832 C 233.296 249.990,233.391 249.978,233.234 249.806 C 233.078 249.634,233.486 248.941,234.140 248.265 C 234.795 247.590,235.247 247.037,235.145 247.037 C 235.043 247.037,234.413 247.602,233.744 248.292 M133.148 257.037 C 134.563 258.463,135.804 259.630,135.906 259.630 C 136.008 259.630,134.934 258.463,133.519 257.037 C 132.104 255.611,130.862 254.444,130.761 254.444 C 130.659 254.444,131.733 255.611,133.148 257.037 M233.704 264.815 C 232.583 265.407,231.797 265.899,231.957 265.908 C 232.350 265.932,235.926 264.107,235.926 263.883 C 235.926 263.635,235.977 263.614,233.704 264.815 M157.438 270.510 C 157.817 270.853,160.741 272.218,160.741 272.052 C 160.741 271.842,157.946 270.370,157.546 270.370 C 157.402 270.370,157.353 270.433,157.438 270.510 M219.259 270.926 C 218.750 271.217,218.500 271.455,218.704 271.455 C 218.907 271.455,219.491 271.217,220.000 270.926 C 220.509 270.635,220.759 270.397,220.556 270.397 C 220.352 270.397,219.769 270.635,219.259 270.926 M193.501 284.444 C 193.501 292.083,193.550 295.208,193.611 291.389 C 193.671 287.569,193.671 281.319,193.611 277.500 C 193.550 273.681,193.501 276.806,193.501 284.444 M184.563 273.704 C 184.563 275.028,184.630 275.569,184.712 274.907 C 184.795 274.245,184.795 273.162,184.712 272.500 C 184.630 271.838,184.563 272.380,184.563 273.704 M163.007 273.873 C 163.540 274.493,164.160 275.333,164.384 275.741 C 164.609 276.148,164.797 276.267,164.804 276.004 C 164.810 275.742,164.190 274.901,163.426 274.136 C 162.652 273.361,162.467 273.245,163.007 273.873 M164.901 278.148 C 164.901 278.861,164.977 279.153,165.070 278.796 C 165.163 278.440,165.163 277.856,165.070 277.500 C 164.977 277.144,164.901 277.435,164.901 278.148 M162.113 286.862 C 161.566 287.977,161.198 288.889,161.294 288.889 C 161.543 288.889,163.412 285.140,163.245 284.974 C 163.169 284.898,162.660 285.748,162.113 286.862 M154.444 298.223 C 154.444 298.385,155.028 298.519,155.741 298.519 C 156.454 298.519,157.037 298.453,157.037 298.374 C 157.037 298.294,156.454 298.161,155.741 298.078 C 155.028 297.995,154.444 298.060,154.444 298.223 M127.130 317.680 C 128.097 317.756,129.681 317.756,130.648 317.680 C 131.616 317.603,130.824 317.541,128.889 317.541 C 126.954 317.541,126.162 317.603,127.130 317.680 M143.576 317.685 C 143.481 317.838,144.971 317.963,146.887 317.963 C 148.803 317.963,150.370 317.838,150.370 317.685 C 150.370 317.532,148.880 317.407,147.059 317.407 C 145.238 317.407,143.670 317.532,143.576 317.685 M181.028 317.679 C 181.899 317.757,183.233 317.756,183.991 317.677 C 184.750 317.597,184.037 317.533,182.407 317.534 C 180.778 317.536,180.157 317.601,181.028 317.679 M191.570 331.759 L 191.658 346.111 191.759 331.955 L 191.861 317.798 197.134 317.684 L 202.407 317.571 196.944 317.489 L 191.481 317.407 191.570 331.759 M216.666 317.685 C 216.665 317.838,217.790 317.917,219.166 317.861 C 223.560 317.681,223.993 317.528,220.278 317.467 C 218.292 317.434,216.666 317.532,216.666 317.685 M236.574 317.680 C 237.644 317.755,239.394 317.755,240.463 317.680 C 241.532 317.606,240.657 317.544,238.519 317.544 C 236.380 317.544,235.505 317.606,236.574 317.680 M208.249 331.852 C 208.249 332.769,208.321 333.144,208.410 332.685 C 208.498 332.227,208.498 331.477,208.410 331.019 C 208.321 330.560,208.249 330.935,208.249 331.852 M214.160 332.963 C 214.160 333.676,214.236 333.968,214.329 333.611 C 214.423 333.255,214.423 332.671,214.329 332.315 C 214.236 331.958,214.160 332.250,214.160 332.963 M226.449 339.444 C 226.450 343.111,226.505 344.561,226.572 342.666 C 226.640 340.772,226.640 337.772,226.572 336.000 C 226.504 334.228,226.449 335.778,226.449 339.444 M198.433 340.268 C 199.098 340.351,200.098 340.349,200.655 340.265 C 201.211 340.180,200.667 340.113,199.444 340.115 C 198.222 340.117,197.767 340.186,198.433 340.268 " stroke="none" fill="#a0d1bc" fill-rule="evenodd"></path><path id="path4" d="M118.704 110.000 C 119.499 110.815,120.234 111.481,120.336 111.481 C 120.437 111.481,119.870 110.815,119.074 110.000 C 118.278 109.185,117.544 108.519,117.442 108.519 C 117.340 108.519,117.908 109.185,118.704 110.000 M191.764 113.225 C 192.224 113.314,192.891 113.310,193.245 113.217 C 193.599 113.125,193.222 113.052,192.407 113.056 C 191.593 113.060,191.303 113.136,191.764 113.225 M196.024 113.229 C 196.587 113.314,197.420 113.312,197.875 113.224 C 198.331 113.136,197.870 113.066,196.852 113.069 C 195.833 113.072,195.461 113.144,196.024 113.229 M193.056 125.825 C 193.819 125.905,195.069 125.905,195.833 125.825 C 196.597 125.745,195.972 125.680,194.444 125.680 C 192.917 125.680,192.292 125.745,193.056 125.825 M248.889 146.412 C 248.889 146.476,249.431 147.018,250.093 147.616 L 251.296 148.704 250.208 147.500 C 249.194 146.378,248.889 146.126,248.889 146.412 M137.199 148.611 L 136.111 149.815 137.315 148.727 C 138.437 147.713,138.689 147.407,138.403 147.407 C 138.339 147.407,137.797 147.949,137.199 148.611 M279.391 198.333 C 279.390 200.167,279.452 200.963,279.530 200.104 C 279.608 199.244,279.608 197.744,279.532 196.770 C 279.455 195.797,279.392 196.500,279.391 198.333 M314.074 238.704 C 314.765 239.417,315.414 240.000,315.516 240.000 C 315.618 240.000,315.135 239.417,314.444 238.704 C 313.753 237.991,313.105 237.407,313.003 237.407 C 312.901 237.407,313.383 237.991,314.074 238.704 " stroke="none" fill="#86cc81" fill-rule="evenodd"></path></g></svg>